<svg width="20" height="40" viewBox="0 0 20 40" fill="none" xmlns="http://www.w3.org/2000/svg">
<path fill-rule="evenodd" clip-rule="evenodd" d="M9.57452 13.5426C9.57452 13.5426 17.5654 22.7675 19.4333 27.2006C21.302 31.6338 18.4116 38.5414 12.662 39.7757C6.91285 41.0103 1.7391 36.9782 0.665351 31.8659C-0.408399 26.7533 4.24369 14.3055 4.24369 14.3055L5.95202 15.4652L6.79952 13.7566L8.7216 14.8704L9.57452 13.5426Z" fill="#FFC024"/>
<path fill-rule="evenodd" clip-rule="evenodd" d="M6.15131 0C6.53673 0 6.9377 0.12009 7.35085 0.359856C8.17002 0.834815 8.60882 1.4282 8.65505 2.1234C8.72314 3.14811 7.87623 4.04609 7.47274 4.41259L9.22162 12.5538C9.26953 12.7782 9.12453 12.9988 8.89756 13.0466C8.6685 13.0948 8.44742 12.9506 8.39909 12.7263L6.59852 4.34486C6.56531 4.18987 6.62499 4.02905 6.75108 3.9314C7.06421 3.68831 7.8653 2.90004 7.81613 2.17617C7.78881 1.77351 7.48913 1.40327 6.92551 1.07624C6.50058 0.830244 6.1345 0.769576 5.80499 0.895483C5.09258 1.16475 4.73868 2.20858 4.73532 2.21939C4.68236 2.38228 4.53399 2.49655 4.36125 2.50777C4.1801 2.51774 4.02669 2.42341 3.95356 2.26842C3.90564 2.17243 3.42272 1.30313 1.99706 1.60314C1.35357 1.73861 1.13628 2.56013 1.25901 3.26446C1.39645 4.05357 1.98865 4.91622 3.21593 4.75707C3.42818 4.7284 3.63623 4.8701 3.68204 5.08286L5.45656 13.3446C5.50447 13.569 5.35947 13.7896 5.1325 13.837C4.90176 13.8848 4.68236 13.741 4.63403 13.517L2.93559 5.60851C2.92802 5.60893 2.92046 5.60893 2.91247 5.60893C1.46664 5.60893 0.628975 4.54432 0.431013 3.40575C0.208253 2.12797 0.806342 1.00394 1.82221 0.790352C2.96165 0.551834 3.75686 0.893406 4.23558 1.30894C4.48398 0.876369 4.89503 0.349883 5.50447 0.119259C5.7142 0.0398916 5.93024 0 6.15131 0Z" fill="#FAFAED"/>
<path fill-rule="evenodd" clip-rule="evenodd" d="M9.23057 20C8.71828 20 8.71775 20.7692 9.23057 20.7692C9.74339 20.7692 9.74393 20 9.23057 20ZM4.9999 26.1538C4.48775 26.1538 4.48668 26.9231 4.9999 26.9231C5.51259 26.9231 5.51312 26.1538 4.9999 26.1538ZM15.3847 26.9231C14.872 26.9231 14.8715 27.6923 15.3847 27.6923C15.8969 27.6923 15.8979 26.9231 15.3847 26.9231ZM16.923 29.6154C16.4108 29.6154 16.4098 30.3846 16.923 30.3846C17.4357 30.3846 17.4362 29.6154 16.923 29.6154ZM15.3847 33.0769C14.872 33.0769 14.8715 33.8462 15.3847 33.8462C15.8969 33.8462 15.8979 33.0769 15.3847 33.0769Z" fill="#FF4E42"/>
</svg>
