<svg width="28" height="40" viewBox="0 0 28 40" fill="none" xmlns="http://www.w3.org/2000/svg">
<mask id="mask0_8452_929" style="mask-type:luminance" maskUnits="userSpaceOnUse" x="0" y="0" width="27" height="40">
<path fill-rule="evenodd" clip-rule="evenodd" d="M0.153839 0.780151H26.2808V39.6154H0.153839V0.780151Z" fill="white"/>
</mask>
<g mask="url(#mask0_8452_929)">
<path fill-rule="evenodd" clip-rule="evenodd" d="M9.05426 2.62832C9.05426 2.62832 -2.05353 13.0754 0.548774 25.9097C3.15108 38.744 15.8804 41.9977 21.5237 38.0207C27.1671 34.0438 27.7479 26.2511 23.4874 19.6628C19.2264 13.0754 23.4946 11.6289 22.8129 6.38696C22.1316 1.14465 12.2459 -1.09944 9.05426 2.62832Z" fill="#FFC024"/>
</g>
<mask id="mask1_8452_929" style="mask-type:luminance" maskUnits="userSpaceOnUse" x="2" y="0" width="26" height="40">
<path fill-rule="evenodd" clip-rule="evenodd" d="M2.12424 0.270813H27.1891V39.5833H2.12424V0.270813Z" fill="white"/>
</mask>
<g mask="url(#mask1_8452_929)">
<path fill-rule="evenodd" clip-rule="evenodd" d="M10.6627 2.14155C10.6627 2.14155 0.00662112 12.7165 2.5032 25.709C4.99935 38.7011 17.2115 41.9949 22.6252 37.969C28.0389 33.9432 28.5969 26.0545 24.5091 19.3857C20.4209 12.7165 24.5159 11.2528 23.8622 5.94613C23.2082 0.639881 13.7245 -1.6322 10.6627 2.14155Z" fill="#FF4E42"/>
</g>
<path fill-rule="evenodd" clip-rule="evenodd" d="M12.3172 14.6225C14.5956 14.6225 16.4026 14.9059 18.3659 15.5405C18.3914 15.5505 19.3245 15.9313 19.9001 15.6073C20.1436 15.4708 20.2885 15.2253 20.3438 14.8575C20.444 14.1891 20.6107 13.5858 20.772 13.0022C21.1017 11.809 21.4126 10.6818 21.2098 9.01346C20.9677 7.03079 19.0358 5.80211 17.308 5.31323C15.4817 4.79679 13.1308 4.90868 11.9963 6.32356C11.9623 6.35947 10.0568 8.29036 8.38808 11.3464C8.33822 11.5664 7.9976 13.2138 8.73708 14.1035C9.09069 14.5285 9.65882 14.7206 10.41 14.6801C11.0863 14.6421 11.7181 14.6225 12.3172 14.6225ZM19.3228 16.1538C18.7618 16.1538 18.2511 15.9447 18.2201 15.9313C15.7791 15.1435 13.6638 14.9151 10.4339 15.0967C9.53816 15.1489 8.85649 14.9026 8.41364 14.369C7.49023 13.2556 7.9666 11.303 7.98713 11.2207L8.0064 11.1719C9.70868 8.04613 11.6644 6.06597 11.6841 6.04635C12.9239 4.49871 15.4628 4.35718 17.4228 4.9116C19.2796 5.43723 21.359 6.77737 21.6255 8.96336C21.8387 10.7131 21.5019 11.9334 21.1759 13.1132C21.018 13.6848 20.8546 14.2759 20.7578 14.9193C20.6836 15.4161 20.4637 15.7706 20.1046 15.9718C19.8629 16.1075 19.5872 16.1538 19.3228 16.1538Z" fill="#1820EF"/>
<path fill-rule="evenodd" clip-rule="evenodd" d="M9.21896 18.8801C8.90114 18.8801 8.58375 18.896 8.2672 18.9307C7.36644 19.0294 6.6836 19.4205 6.23807 20.0923C4.83361 22.2088 6.11119 26.441 6.12426 26.4837C7.31164 30.0898 9.98568 32.8324 13.4606 34.0049C16.2164 34.9335 19.0733 34.7323 20.9187 33.4808C24.8952 30.7824 25.4828 25.4016 22.3156 20.6867C22.3122 20.6867 21.3271 19.6268 20.348 19.6247H20.3454C19.9779 19.6247 19.6635 19.7723 19.384 20.0764C18.4976 21.0389 16.7766 20.5382 14.5982 19.9053C12.9303 19.4205 11.0719 18.8801 9.21896 18.8801ZM16.8769 35C15.727 35 14.5156 34.8022 13.3253 34.4006C9.7235 33.1859 6.9521 30.3462 5.72214 26.6096C5.66524 26.4247 4.3729 22.144 5.88569 19.8631C6.4033 19.0817 7.18941 18.6283 8.22125 18.515C10.4679 18.2682 12.725 18.9245 14.7167 19.5038C16.6741 20.0727 18.3644 20.5646 19.0729 19.7941C19.4316 19.4042 19.8599 19.2064 20.3454 19.2064H20.3501C21.5223 19.2097 22.6022 20.3805 22.6473 20.4303C25.9671 25.369 25.3327 30.9924 21.1564 33.8259C20.0112 34.6026 18.5064 35 16.8769 35Z" fill="#1820EF"/>
</svg>
