<svg width="27" height="40" viewBox="0 0 27 40" fill="none" xmlns="http://www.w3.org/2000/svg">
<path fill-rule="evenodd" clip-rule="evenodd" d="M13.9763 3.43913L13.9771 3.43819C14.4472 2.86014 15.0316 2.14147 16.1816 2.14147C17.332 2.14147 17.9164 2.86014 18.3865 3.43829L18.3869 3.43871C18.8496 4.00904 19.1412 4.33179 19.7419 4.33179C20.3409 4.33179 20.6316 4.00945 21.0952 3.43913C21.5646 2.86091 22.149 2.14147 23.2988 2.14147C24.4482 2.14147 25.0322 2.86091 25.5012 3.43913C25.9635 4.00945 26.2547 4.33179 26.8533 4.33179C26.8544 4.33179 26.8553 4.33202 26.8563 4.33224C26.8571 4.33243 26.8579 4.33262 26.8587 4.33262V0.264343H12.6168V4.33304L12.6184 4.33253C12.6194 4.33216 12.6204 4.33179 12.6218 4.33179C13.222 4.33179 13.5136 4.00904 13.9763 3.43913ZM13.9771 9.64969L13.9763 9.65062C13.5136 10.2205 13.222 10.5433 12.6218 10.5433C12.6207 10.5433 12.6198 10.5436 12.619 10.544C12.6183 10.5443 12.6176 10.5445 12.6168 10.5445V5.42575C12.6176 5.42575 12.6183 5.42602 12.619 5.42632H12.619H12.619H12.619H12.619C12.6198 5.42665 12.6207 5.42699 12.6218 5.42699C13.7723 5.42699 14.3567 4.70768 14.8265 4.12949L14.8266 4.12933C15.2898 3.55942 15.581 3.23667 16.1816 3.23667C16.7823 3.23667 17.0735 3.55942 17.5366 4.12933L17.5367 4.12949C18.0065 4.70768 18.591 5.42699 19.7419 5.42699C20.8912 5.42699 21.4761 4.70755 21.9455 4.12933C22.4082 3.55942 22.6998 3.23667 23.2988 3.23667C23.8974 3.23667 24.1886 3.55901 24.6509 4.12933C25.1199 4.70755 25.7035 5.42699 26.8533 5.42699C26.8544 5.42699 26.8553 5.42665 26.8563 5.42632C26.8568 5.42613 26.8573 5.42594 26.8578 5.42584C26.8581 5.42578 26.8584 5.42575 26.8587 5.42575V10.5441L26.8574 10.544C26.8561 10.5437 26.8548 10.5433 26.8533 10.5433C26.2547 10.5433 25.9635 10.2209 25.5012 9.65062C25.0322 9.07241 24.4482 8.35296 23.2988 8.35296C22.149 8.35296 21.5646 9.07241 21.0952 9.65062C20.6316 10.2209 20.3409 10.5433 19.7419 10.5433C19.1412 10.5433 18.8496 10.2205 18.3869 9.65021L18.3856 9.64864C17.9156 9.07111 17.3312 8.35296 16.1816 8.35296C15.0316 8.35296 14.4472 9.07163 13.9771 9.64969ZM24.6509 10.3406C25.1199 10.9188 25.7035 11.6383 26.8533 11.6383C26.8544 11.6383 26.8553 11.638 26.8563 11.6378L26.857 11.6377L26.8587 11.6375V16.7558C26.858 16.7558 26.8573 16.7556 26.8565 16.7553L26.8563 16.7552C26.8553 16.7549 26.8544 16.7546 26.8533 16.7546C26.2547 16.7546 25.9635 16.4326 25.5012 15.8619C25.0322 15.2841 24.4482 14.5647 23.2988 14.5647C22.149 14.5647 21.5646 15.2841 21.0952 15.8619L21.0952 15.8619L21.0952 15.8619C20.6316 16.4326 20.3409 16.7546 19.7419 16.7546C19.1412 16.7546 18.8496 16.4322 18.3869 15.8619L18.3865 15.8615C17.9164 15.2833 17.332 14.5647 16.1816 14.5647C15.032 14.5647 14.4476 15.2828 13.9776 15.8603L13.9763 15.8619C13.5136 16.4322 13.222 16.7546 12.6218 16.7546C12.6207 16.7546 12.6198 16.7549 12.619 16.7552C12.6183 16.7555 12.6176 16.7558 12.6168 16.7558V11.6375C12.6176 11.6375 12.6183 11.6376 12.619 11.6378H12.619H12.619C12.6198 11.638 12.6207 11.6383 12.6218 11.6383C13.7724 11.6383 14.3568 10.9192 14.8266 10.341C15.2898 9.77071 15.581 9.44837 16.1816 9.44837C16.7823 9.44837 17.0735 9.77071 17.5366 10.341C18.0064 10.9192 18.5908 11.6383 19.7419 11.6383C20.8912 11.6383 21.4761 10.9188 21.9455 10.341C22.4082 9.77071 22.6998 9.44837 23.2988 9.44837C23.8974 9.44837 24.1886 9.77071 24.6509 10.3406ZM23.2989 15.6599C23.8975 15.6599 24.1887 15.9822 24.651 16.5521L24.6513 16.5525C25.1202 17.1306 25.7038 17.8502 26.8533 17.8502C26.8554 17.8502 26.8571 17.8489 26.8583 17.8489V20.7429H12.6165V17.8489C12.6175 17.8489 12.6183 17.8493 12.6192 17.8496C12.62 17.8499 12.6208 17.8502 12.6219 17.8502C13.7724 17.8502 14.3568 17.1309 14.8266 16.5527L14.8267 16.5525C15.2899 15.9822 15.5811 15.6599 16.1813 15.6599C16.7823 15.6599 17.0735 15.9822 17.5367 16.5525L17.5368 16.5527C18.0066 17.1309 18.591 17.8502 19.742 17.8502C20.891 17.8502 21.4754 17.1308 21.9447 16.5531L21.9452 16.5525C22.4083 15.9822 22.6999 15.6599 23.2989 15.6599Z" fill="#1820EF"/>
<path fill-rule="evenodd" clip-rule="evenodd" d="M8.45016 12.4857C8.37249 12.2664 8.27695 12.0529 8.15815 11.8502C7.62355 10.9392 6.60295 10.0229 4.65895 9.99964C3.24664 9.98302 2.31161 10.4491 1.69185 11.0481C0.602301 11.7596 0.554531 13.5204 0.554531 13.5204C0.554531 13.5204 0.557439 13.5213 0.557854 13.5213C0.535839 13.7742 0.530854 14.0285 0.551624 14.2827L2.52802 38.1461C2.60861 39.1189 3.34882 39.8666 4.2419 39.877C5.13165 39.8874 5.88724 39.1638 5.99524 38.198L8.61382 14.8048C8.75049 13.5823 8.45016 12.4857 8.45016 12.4857Z" fill="#FF4E42"/>
<path fill-rule="evenodd" clip-rule="evenodd" d="M3.58281 10.9477C3.58281 10.9477 0.0898434 2.82979 2.0409 2.90789C3.99197 2.98598 4.0389 6.09596 4.0389 6.09596C4.0389 6.09596 2.93398 -0.570545 5.31123 0.0396552C7.6893 0.64944 5.48693 8.45285 5.48693 8.45285C5.48693 8.45285 6.66995 4.37752 7.9186 5.12022C9.16683 5.86335 5.76649 10.8783 5.76649 10.8783C5.76649 10.8783 5.34612 11.9737 3.58281 10.9477Z" fill="#1820EF"/>
<path fill-rule="evenodd" clip-rule="evenodd" d="M4.03592 23.6343C4.26729 23.6277 4.4484 23.4353 4.44216 23.204C4.43552 22.9726 4.2432 22.7911 4.01141 22.7977C2.14924 22.8521 1.63333 22.5826 1.581 22.551C1.49335 22.4746 1.3812 22.4446 1.27112 22.4534L1.3463 23.3631C1.39989 23.3847 1.45721 23.4063 1.52616 23.4279C1.96107 23.5612 2.71915 23.6734 4.03592 23.6343Z" fill="#1820EF"/>
<path fill-rule="evenodd" clip-rule="evenodd" d="M4.29066 27.1282C4.52203 27.1216 4.70313 26.9288 4.69732 26.6974C4.68984 26.4669 4.49752 26.2858 4.26615 26.2912C2.40273 26.346 1.88849 26.0769 1.83532 26.0449C1.75681 25.9763 1.65878 25.9427 1.56033 25.9427L1.63676 26.8698C1.68204 26.8873 1.72524 26.9047 1.78049 26.9213C2.21581 27.0551 2.97389 27.1672 4.29066 27.1282Z" fill="#1820EF"/>
<path fill-rule="evenodd" clip-rule="evenodd" d="M3.64486 20.308C3.87623 20.3014 4.05775 20.1086 4.05152 19.8777C4.04446 19.6467 3.85255 19.4652 3.62035 19.4714C1.75652 19.5263 1.24269 19.2567 1.18952 19.2247C1.13303 19.1753 1.06574 19.1504 0.996368 19.1362L1.07488 20.0796C1.09565 20.087 1.11185 20.0941 1.13469 20.1012C1.57001 20.2349 2.32768 20.3467 3.64486 20.308Z" fill="#1820EF"/>
<path fill-rule="evenodd" clip-rule="evenodd" d="M26.0379 26.5834H13.4368C12.9836 26.5834 12.6164 26.2162 12.6164 25.763V22.8744C12.6164 22.4208 12.9836 22.054 13.4368 22.054H26.0379C26.4915 22.054 26.8587 22.4208 26.8587 22.8744V25.763C26.8587 26.2162 26.4915 26.5834 26.0379 26.5834Z" fill="#FFC024"/>
<path fill-rule="evenodd" clip-rule="evenodd" d="M25.2161 23.8652H20.0051C19.8904 23.8652 19.7974 23.7721 19.7974 23.6575C19.7974 23.5428 19.8904 23.4498 20.0051 23.4498H25.2161C25.3307 23.4498 25.4238 23.5428 25.4238 23.6575C25.4238 23.7721 25.3307 23.8652 25.2161 23.8652Z" fill="#1820EF"/>
<path fill-rule="evenodd" clip-rule="evenodd" d="M21.7952 25.1198H14.2286C14.1139 25.1198 14.0209 25.0267 14.0209 24.9121C14.0209 24.7975 14.1139 24.7044 14.2286 24.7044H21.7952C21.9099 24.7044 22.0029 24.7975 22.0029 24.9121C22.0029 25.0267 21.9099 25.1198 21.7952 25.1198Z" fill="#1820EF"/>
<path fill-rule="evenodd" clip-rule="evenodd" d="M26.0379 32.4625H13.4368C12.9836 32.4625 12.6164 32.0949 12.6164 31.6417V28.7531C12.6164 28.2999 12.9836 27.9327 13.4368 27.9327H26.0379C26.4915 27.9327 26.8587 28.2999 26.8587 28.7531V31.6417C26.8587 32.0949 26.4915 32.4625 26.0379 32.4625Z" fill="#FFC024"/>
<path fill-rule="evenodd" clip-rule="evenodd" d="M19.2591 29.7438H14.0481C13.9334 29.7438 13.8404 29.6508 13.8404 29.5361C13.8404 29.4215 13.9334 29.3284 14.0481 29.3284H19.2591C19.3737 29.3284 19.4668 29.4215 19.4668 29.5361C19.4668 29.6508 19.3737 29.7438 19.2591 29.7438Z" fill="#1820EF"/>
<path fill-rule="evenodd" clip-rule="evenodd" d="M25.5787 30.9985H18.0121C17.8974 30.9985 17.8044 30.9054 17.8044 30.7908C17.8044 30.6761 17.8974 30.5831 18.0121 30.5831H25.5787C25.6934 30.5831 25.7864 30.6761 25.7864 30.7908C25.7864 30.9054 25.6934 30.9985 25.5787 30.9985Z" fill="#1820EF"/>
<path fill-rule="evenodd" clip-rule="evenodd" d="M14.6351 37.267C13.8467 37.267 13.2074 36.6282 13.2074 35.8393C13.2074 35.0514 13.8467 34.4125 14.6351 34.4125C15.4231 34.4125 16.0628 35.0514 16.0628 35.8393C16.0628 36.6282 15.4231 37.267 14.6351 37.267ZM14.6351 33.821C13.5202 33.821 12.6163 34.7249 12.6163 35.8393C12.6163 36.9546 13.5202 37.8585 14.6351 37.8585C15.75 37.8585 16.6535 36.9546 16.6535 35.8393C16.6535 34.7249 15.75 33.821 14.6351 33.821ZM19.7374 39.2855C18.9494 39.2855 18.3101 38.6466 18.3101 37.8582C18.3101 37.0698 18.9494 36.431 19.7374 36.431C20.5257 36.431 21.165 37.0698 21.165 37.8582C21.165 38.6466 20.5257 39.2855 19.7374 39.2855ZM19.7374 35.8395C18.6225 35.8395 17.719 36.7433 17.719 37.8582C17.719 38.9731 18.6225 39.877 19.7374 39.877C20.8527 39.877 21.7561 38.9731 21.7561 37.8582C21.7561 36.7433 20.8527 35.8395 19.7374 35.8395ZM23.4123 35.8393C23.4123 36.6282 24.0516 37.267 24.84 37.267C25.628 37.267 26.2673 36.6282 26.2673 35.8393C26.2673 35.0514 25.628 34.4125 24.84 34.4125C24.0516 34.4125 23.4123 35.0514 23.4123 35.8393ZM22.8213 35.8393C22.8213 34.7249 23.7247 33.821 24.84 33.821C25.9549 33.821 26.8584 34.7249 26.8584 35.8393C26.8584 36.9546 25.9549 37.8585 24.84 37.8585C23.7247 37.8585 22.8213 36.9546 22.8213 35.8393Z" fill="#1820EF"/>
</svg>
