<svg width="40" height="38" viewBox="0 0 40 38" fill="none" xmlns="http://www.w3.org/2000/svg">
<path fill-rule="evenodd" clip-rule="evenodd" d="M39.4682 16.505C39.4682 12.818 30.5279 9.70306 19.9452 9.70306C9.36241 9.70306 0.422089 12.818 0.422089 16.505C0.422089 17.1272 0.682119 17.732 1.15607 18.3094C3.49095 15.4649 11.1481 13.3119 19.9452 13.3119C28.7426 13.3119 36.3994 15.4649 38.7347 18.3094C39.2086 17.732 39.4682 17.1272 39.4682 16.505Z" fill="#FF4E42"/>
<path fill-rule="evenodd" clip-rule="evenodd" d="M19.9452 13.3117C11.1481 13.3117 3.49094 15.4651 1.15607 18.3092C3.49094 21.1538 11.1481 23.3071 19.9452 23.3071C28.7426 23.3071 36.3994 21.1538 38.7347 18.3092C36.3994 15.4651 28.7426 13.3117 19.9452 13.3117Z" fill="#FFC024"/>
<path fill-rule="evenodd" clip-rule="evenodd" d="M19.9454 24.1378C29.9288 24.1378 38.0192 21.5728 39.8909 18.0657C39.7352 22.0031 38.1779 32.2428 26.3781 34.9789H13.5128C1.71211 32.2428 0.155659 22.0015 0.000305176 18.0649C1.87037 21.5724 9.96165 24.1378 19.9454 24.1378ZM24.9374 37.2503H14.9532C14.1578 37.2503 13.5127 36.6052 13.5127 35.8097H26.378C26.378 36.6052 25.7329 37.2503 24.9374 37.2503Z" fill="#1820EF"/>
<path fill-rule="evenodd" clip-rule="evenodd" d="M13.5209 12.5809C13.2912 12.5809 13.1055 12.3949 13.1055 12.1656C13.1055 11.2937 13.6513 10.8505 14.09 10.4949C14.5224 10.1439 14.7671 9.92332 14.7671 9.4693C14.7671 9.01446 14.5224 8.79347 14.0896 8.44247C13.6509 8.08607 13.1055 7.64286 13.1055 6.77055C13.1055 5.89783 13.6509 5.4542 14.0896 5.0978C14.5224 4.74638 14.7671 4.52498 14.7671 4.06972C14.7671 3.61487 14.5224 3.39347 14.0896 3.04206C13.6509 2.68566 13.1055 2.24203 13.1055 1.3693C13.1055 1.14001 13.2912 0.953918 13.5209 0.953918C13.7506 0.953918 13.9363 1.14001 13.9363 1.3693C13.9363 1.82456 14.181 2.04555 14.6138 2.39738C15.0524 2.75378 15.5978 3.197 15.5978 4.06972C15.5978 4.94286 15.0524 5.38607 14.6138 5.74247C14.181 6.0943 13.9363 6.31529 13.9363 6.77055C13.9363 7.22498 14.181 7.44596 14.6138 7.79738C15.0524 8.15336 15.5978 8.59658 15.5978 9.4693C15.5978 10.341 15.0522 10.7838 14.6136 11.1398L14.6134 11.14C14.181 11.4906 13.9363 11.7115 13.9363 12.1656C13.9363 12.3949 13.7506 12.5809 13.5209 12.5809ZM19.1144 12.5809C18.8847 12.5809 18.699 12.3949 18.699 12.1656C18.699 11.2937 19.2448 10.8505 19.6835 10.4949C20.1159 10.1439 20.3606 9.92332 20.3606 9.4693C20.3606 9.01446 20.1159 8.79347 19.6831 8.44247C19.2444 8.08607 18.699 7.64286 18.699 6.77055C18.699 5.89783 19.2444 5.4542 19.6831 5.0978C20.1159 4.74638 20.3606 4.52498 20.3606 4.06972C20.3606 3.61487 20.1159 3.39347 19.6831 3.04206C19.2444 2.68566 18.699 2.24203 18.699 1.3693C18.699 1.14001 18.8847 0.953918 19.1144 0.953918C19.3441 0.953918 19.5298 1.14001 19.5298 1.3693C19.5298 1.82456 19.7744 2.04555 20.2073 2.39738C20.6459 2.75378 21.1913 3.197 21.1913 4.06972C21.1913 4.94286 20.6459 5.38607 20.2073 5.74247C19.7744 6.0943 19.5298 6.31529 19.5298 6.77055C19.5298 7.22498 19.7744 7.44596 20.2073 7.79738C20.6459 8.15336 21.1913 8.59658 21.1913 9.4693C21.1913 10.341 20.6457 10.7838 20.2071 11.1398L20.2069 11.14C19.7744 11.4906 19.5298 11.7115 19.5298 12.1656C19.5298 12.3949 19.3441 12.5809 19.1144 12.5809ZM24.2929 12.1656C24.2929 12.3949 24.4786 12.5809 24.7083 12.5809C24.938 12.5809 25.1237 12.3949 25.1237 12.1656C25.1237 11.7115 25.3683 11.4906 25.8008 11.14L25.801 11.1398C26.2396 10.7838 26.7852 10.341 26.7852 9.4693C26.7852 8.59658 26.2398 8.15336 25.8012 7.79738C25.3683 7.44596 25.1237 7.22498 25.1237 6.77055C25.1237 6.31529 25.3683 6.0943 25.8012 5.74247C26.2398 5.38607 26.7852 4.94286 26.7852 4.06972C26.7852 3.197 26.2398 2.75378 25.8012 2.39738C25.3683 2.04555 25.1237 1.82456 25.1237 1.3693C25.1237 1.14001 24.938 0.953918 24.7083 0.953918C24.4786 0.953918 24.2929 1.14001 24.2929 1.3693C24.2929 2.24203 24.8383 2.68566 25.277 3.04206C25.7098 3.39347 25.9545 3.61487 25.9545 4.06972C25.9545 4.52498 25.7098 4.74638 25.277 5.0978C24.8383 5.4542 24.2929 5.89783 24.2929 6.77055C24.2929 7.64286 24.8383 8.08607 25.277 8.44247C25.7098 8.79347 25.9545 9.01446 25.9545 9.4693C25.9545 9.92332 25.7098 10.1439 25.2774 10.4949C24.8387 10.8505 24.2929 11.2937 24.2929 12.1656Z" fill="#1820EF"/>
</svg>
