<svg width="24" height="40" viewBox="0 0 24 40" fill="none" xmlns="http://www.w3.org/2000/svg">
<path fill-rule="evenodd" clip-rule="evenodd" d="M17.2865 1.30944H18.8785C19.2004 1.30944 19.4619 1.07829 19.4619 0.792904V0.651365C19.4619 0.365981 19.2004 0.134827 18.8785 0.134827H3.73728C3.41451 0.134827 3.15387 0.365981 3.15387 0.651365V0.792904C3.15387 1.07829 3.41451 1.30944 3.73728 1.30944H6.65616L7.38999 2.95376C7.38999 2.95376 12.1018 4.09631 16.5527 2.95376L17.2865 1.30944Z" fill="#FF4E42"/>
<path fill-rule="evenodd" clip-rule="evenodd" d="M0.547595 24.0488C0.848653 21.9938 1.36816 20.1072 1.99327 18.35C5.22613 19.0908 12.1189 20.071 21.8699 18.295C22.5039 20.0678 23.0303 21.9724 23.3347 24.0488C24.2434 30.2492 23.6298 34.3025 23.2215 36.0732C20.8654 34.9603 16.4262 34.3859 12.0236 34.3859C7.52515 34.3859 2.9914 34.9857 0.677472 36.1468C0.269106 34.4118 -0.372185 30.3268 0.547595 24.0488ZM0.89863 37.198C0.89863 37.198 0.878501 37.1429 0.846379 37.0393C2.59806 36.1351 6.54855 35.2885 12.0417 35.2885C17.4308 35.2885 21.3351 36.1032 23.1351 36.988C22.5925 38.6618 17.8094 39.9706 11.9873 39.9706C6.41107 39.9706 1.7886 38.7699 0.930751 37.198H0.89863Z" fill="#1820EF"/>
<path fill-rule="evenodd" clip-rule="evenodd" d="M21.6154 17.4785C19.6077 12.0997 16.7766 7.89776 16.1467 3.84619C11.4893 5.28094 7.4851 3.84619 7.4851 3.84619C6.85352 7.90933 4.00816 12.1241 2 17.5247C5.23712 18.2563 12.0984 19.2263 21.6154 17.4785Z" fill="#FFC024"/>
<path fill-rule="evenodd" clip-rule="evenodd" d="M21.5866 27.3077C21.3717 27.3077 21.1904 27.1439 21.1751 26.9296C20.3099 15.0529 15.5863 8.40257 15.5384 8.33656C15.4058 8.1532 15.4492 7.89893 15.6347 7.76813C15.8202 7.63733 16.0788 7.68012 16.2106 7.86307C16.411 8.13934 21.1176 14.7677 21.9989 26.8709C22.0154 27.0954 21.844 27.2906 21.6163 27.3069C21.6064 27.3073 21.5965 27.3077 21.5866 27.3077Z" fill="#FAFAED"/>
</svg>
