<svg width="24" height="41" viewBox="0 0 24 41" fill="none" xmlns="http://www.w3.org/2000/svg">
<path fill-rule="evenodd" clip-rule="evenodd" d="M17.6544 33.7468C17.8971 33.7787 18.1344 33.8534 18.3521 33.9684L23.5098 36.6876C23.5728 36.7207 23.6171 36.7718 23.6524 36.8284C23.7674 36.5303 23.8101 36.2026 23.7567 35.871C23.288 32.9519 22.096 25.997 21.0744 20.037C20.5317 16.8705 20.0371 13.9849 19.7247 12.1345C19.5447 11.0707 18.4986 10.3972 17.4497 10.6495C16.6071 10.8522 15.8017 11.0007 15.0328 11.1076C15.0659 11.1576 15.0913 11.2134 15.0986 11.2772L17.6544 33.7468ZM6.63636 33.7971C6.4829 33.8374 6.3329 33.8936 6.19175 33.9682L1.03444 36.6874C0.997899 36.7067 0.970207 36.7344 0.942899 36.7624C0.847899 36.4797 0.819438 36.1724 0.87213 35.8644L4.96251 12.2567C5.14328 11.1951 6.18828 10.5032 7.23175 10.7697C7.81328 10.9182 8.52367 11.0617 9.34521 11.1667C9.32982 11.2013 9.31444 11.2359 9.30944 11.2751L6.63636 33.7971ZM1.33669 37.3914C1.35692 37.3871 1.3771 37.3829 1.39609 37.3727L6.5334 34.6638L5.91725 39.8565L1.86994 37.8327C1.65186 37.7238 1.46725 37.5723 1.31263 37.3969C1.32057 37.3948 1.32858 37.3931 1.33658 37.3914L1.33669 37.3914ZM16.8729 33.7278H7.42486L10.0787 11.3663C10.0837 11.3247 10.0772 11.2851 10.0691 11.2463C11.2937 11.3559 12.7314 11.3686 14.3533 11.1909C14.3337 11.2451 14.3226 11.3032 14.3295 11.3644L16.8729 33.7278ZM7.33282 34.5023L6.66667 40.1162C6.74667 40.1269 6.82782 40.1335 6.90859 40.1335H17.6013L16.9609 34.5023H7.33282ZM17.7467 34.56C17.8301 34.5847 17.9132 34.6127 17.9909 34.6535L23.1482 37.3727C23.1936 37.3966 23.2421 37.4077 23.2901 37.4127C23.1405 37.5762 22.9632 37.7174 22.7559 37.8212L18.5224 39.9377C18.4717 39.9631 18.4186 39.9843 18.3663 40.005L17.7467 34.56Z" fill="#FAFAED"/>
<path fill-rule="evenodd" clip-rule="evenodd" d="M6.65941 9.55713C8.50903 10.1833 12.7379 11.1717 17.9344 9.52175C18.5836 9.31598 18.9775 8.70636 18.8513 8.09329C18.5113 6.4429 17.2213 3.46136 12.3398 3.46136C7.4198 3.46136 6.11903 6.48944 5.77557 8.13136C5.64864 8.7379 6.02211 9.34098 6.65941 9.55713Z" fill="#FF4E42"/>
<path fill-rule="evenodd" clip-rule="evenodd" d="M12.882 4.89256C12.882 5.17794 12.6274 5.4091 12.3131 5.4091C11.9985 5.4091 11.7435 5.17794 11.7435 4.89256C11.7435 4.60756 11.9985 4.3764 12.3131 4.3764C12.6274 4.3764 12.882 4.60756 12.882 4.89256ZM10.4807 5.92544C10.4807 6.21044 10.2261 6.44198 9.9119 6.44198C9.59729 6.44198 9.34229 6.21044 9.34229 5.92544C9.34229 5.64006 9.59729 5.4089 9.9119 5.4089C10.2261 5.4089 10.4807 5.64006 10.4807 5.92544ZM14.7143 6.44198C15.0286 6.44198 15.2832 6.21044 15.2832 5.92544C15.2832 5.64006 15.0286 5.4089 14.7143 5.4089C14.3997 5.4089 14.1447 5.64006 14.1447 5.92544C14.1447 6.21044 14.3997 6.44198 14.7143 6.44198Z" fill="#1820EF"/>
<path fill-rule="evenodd" clip-rule="evenodd" d="M12.7692 0.384615C12.7692 0.596827 12.5972 0.769231 12.3849 0.769231C12.1723 0.769231 12 0.596827 12 0.384615C12 0.172118 12.1723 0 12.3849 0C12.5972 0 12.7692 0.172118 12.7692 0.384615ZM15.0769 1.80231C15.0769 2.01452 14.9049 2.18692 14.6926 2.18692C14.48 2.18692 14.3077 2.01452 14.3077 1.80231C14.3077 1.58981 14.48 1.41769 14.6926 1.41769C14.9049 1.41769 15.0769 1.58981 15.0769 1.80231ZM10.0772 1.92308C10.2895 1.92308 10.4616 1.75067 10.4616 1.53846C10.4616 1.32596 10.2895 1.15385 10.0772 1.15385C9.86462 1.15385 9.69232 1.32596 9.69232 1.53846C9.69232 1.75067 9.86462 1.92308 10.0772 1.92308Z" fill="#FAFAED"/>
</svg>
