<svg width="24" height="40" viewBox="0 0 24 40" fill="none" xmlns="http://www.w3.org/2000/svg">
<path fill-rule="evenodd" clip-rule="evenodd" d="M17.2865 1.30944H18.8785C19.2004 1.30944 19.4619 1.07829 19.4619 0.792904V0.651365C19.4619 0.365981 19.2004 0.134827 18.8785 0.134827H3.73728C3.41451 0.134827 3.15387 0.365981 3.15387 0.651365V0.792904C3.15387 1.07829 3.41451 1.30944 3.73728 1.30944H6.65616L7.38999 2.95376C7.38999 2.95376 12.1018 4.09631 16.5527 2.95376L17.2865 1.30944Z" fill="#FFC024"/>
<path fill-rule="evenodd" clip-rule="evenodd" d="M0.547717 24.0488C0.848775 21.9938 1.36828 20.1072 1.99339 18.35C5.22625 19.0908 12.1191 20.071 21.87 18.295C22.5041 20.0678 23.0304 21.9724 23.3348 24.0488C24.2436 30.2492 23.6299 34.3025 23.2216 36.0732C20.8655 34.9603 16.4263 34.3859 12.0237 34.3859C7.52527 34.3859 2.99152 34.9857 0.677594 36.1468C0.269228 34.4118 -0.372063 30.3268 0.547717 24.0488ZM0.898752 37.198C0.898752 37.198 0.878623 37.1429 0.846501 37.0393C2.59818 36.1351 6.54868 35.2885 12.0419 35.2885C17.431 35.2885 21.3352 36.1032 23.1353 36.988C22.5926 38.6618 17.8096 39.9706 11.9875 39.9706C6.4112 39.9706 1.78873 38.7699 0.930873 37.198H0.898752Z" fill="#FF4E42"/>
<path fill-rule="evenodd" clip-rule="evenodd" d="M21.6155 17.4785C19.6078 12.0997 16.7767 7.89776 16.1469 3.84619C11.4894 5.28094 7.48523 3.84619 7.48523 3.84619C6.85364 7.90933 4.00828 12.1241 2.00012 17.5247C5.23725 18.2563 12.0985 19.2263 21.6155 17.4785Z" fill="#FAFAED"/>
<path fill-rule="evenodd" clip-rule="evenodd" d="M21.5867 27.3077C21.3719 27.3077 21.1905 27.1439 21.1752 26.9296C20.3101 15.0529 15.5865 8.40257 15.5385 8.33656C15.4059 8.1532 15.4493 7.89893 15.6348 7.76813C15.8203 7.63733 16.0789 7.68012 16.2107 7.86307C16.4111 8.13934 21.1178 14.7677 21.999 26.8709C22.0155 27.0954 21.8441 27.2906 21.6164 27.3069C21.6065 27.3073 21.5966 27.3077 21.5867 27.3077Z" fill="#FAFAED"/>
</svg>
